<svg xmlns="http://www.w3.org/2000/svg" viewBox="0 0 640 420" role="img" aria-label="土地と地域を読む道具箱の抽象イラスト">
  <defs>
    <linearGradient id="paper" x1="0" x2="1" y1="0" y2="1">
      <stop offset="0%" stop-color="#fffaf0"/>
      <stop offset="100%" stop-color="#eee2c8"/>
    </linearGradient>
    <filter id="rough">
      <feTurbulence type="fractalNoise" baseFrequency="0.018" numOctaves="4" seed="8"/>
      <feDisplacementMap in="SourceGraphic" scale="2.2"/>
    </filter>
  </defs>
  <rect width="640" height="420" rx="34" fill="#d8c8ad"/>
  <path d="M0 320 C120 270 180 365 320 315 C460 265 520 305 640 245 L640 420 L0 420 Z" fill="#bba47b" opacity=".42"/>
  <g filter="url(#rough)">
    <rect x="72" y="70" width="300" height="224" rx="18" fill="url(#paper)" stroke="#183c2f" stroke-opacity=".28"/>
    <path d="M102 122 C158 96 213 142 269 116 C305 99 327 107 345 119" fill="none" stroke="#183c2f" stroke-width="4" stroke-linecap="round" opacity=".55"/>
    <path d="M104 170 C172 139 230 195 300 162 C328 149 345 151 358 162" fill="none" stroke="#b8874a" stroke-width="4" stroke-linecap="round" opacity=".75"/>
    <path d="M103 218 C166 190 220 241 285 215 C322 200 345 204 358 217" fill="none" stroke="#183c2f" stroke-width="3" stroke-linecap="round" opacity=".45"/>
    <circle cx="218" cy="165" r="20" fill="#183c2f" opacity=".9"/>
    <path d="M218 126 L238 160 L218 215 L198 160 Z" fill="#fffaf0" opacity=".9"/>
    <rect x="402" y="122" width="140" height="202" rx="18" fill="#fffaf0" stroke="#183c2f" stroke-opacity=".22"/>
    <line x1="426" y1="166" x2="516" y2="166" stroke="#183c2f" stroke-width="5" stroke-linecap="round" opacity=".35"/>
    <line x1="426" y1="206" x2="492" y2="206" stroke="#183c2f" stroke-width="5" stroke-linecap="round" opacity=".35"/>
    <line x1="426" y1="246" x2="512" y2="246" stroke="#b8874a" stroke-width="5" stroke-linecap="round" opacity=".62"/>
    <circle cx="470" cy="90" r="40" fill="#183c2f"/>
    <path d="M450 90 h40 M470 70 v40" stroke="#fffaf0" stroke-width="6" stroke-linecap="round"/>
  </g>
</svg>